<svg xmlns="http://www.w3.org/2000/svg" viewBox="0 0 53.337 34.129" height="128.992" width="201.589">
    <g font-weight="400" font-size="50.8" font-family="STIXGeneral" letter-spacing="0" word-spacing="0" fill="none"
        stroke="#000" stroke-width=".05">
        <path
            d="M25.599 25.04c-.864.711-1.372.965-2.184.965-.915 0-1.575-1.016-1.575-3.352V12.95c0-3.099-.203-4.166-1.423-5.639-1.219-1.473-3.15-2.286-5.994-2.286-2.286 0-4.42.61-5.842 1.524-1.778 1.118-2.59 2.743-2.59 4.064 0 1.372 1.117 2.337 2.184 2.337 1.32 0 2.336-1.118 2.336-2.083 0-1.067-.304-1.22-.304-2.134 0-1.371 1.524-2.489 3.556-2.489 2.286 0 3.962 1.423 3.962 4.572v2.743c-5.74 2.134-7.62 3.1-9.144 4.115-1.981 1.321-3.556 3.302-3.556 5.944 0 3.353 2.184 5.283 5.334 5.283 2.184 0 4.674-.66 7.366-3.708h.05c.255 2.692 1.372 3.708 3.252 3.708 1.727 0 3.048-.508 4.572-2.438zm-7.874-3.099c0 1.474-.305 2.185-1.778 3.2-.864.56-1.93.814-2.946.814-1.982 0-3.506-1.22-3.506-3.912 0-1.575.508-2.794 1.728-3.912 1.27-1.168 3.352-2.235 6.502-3.352z"
            style="line-height:3.25;-inkscape-font-specification:STIXGeneral" />
        <path
            d="M48.312 5.533h-7.061v.762c1.626.152 2.388.66 2.388 1.626 0 .508-.102 1.016-.305 1.524l-5.03 13.157-5.181-13.005c-.305-.762-.457-1.422-.457-1.93 0-.864.61-1.22 2.337-1.372v-.762h-9.957v.762c1.93.102 2.438.61 4.623 5.842l6.096 14.58c.203.457.254.812.406 1.066.356.915.61 1.321.914 1.321.305 0 .66-.66 1.423-2.54l6.502-16.307c1.372-3.403 1.778-3.81 3.302-3.962z"
            style="line-height:3.25;-inkscape-font-specification:STIXGeneral" />
    </g>
</svg>